<?xml version="1.0" standalone="no"?>
<!DOCTYPE svg PUBLIC "-//W3C//DTD SVG 20010904//EN"
 "http://www.w3.org/TR/2001/REC-SVG-20010904/DTD/svg10.dtd">
<svg version="1.0" xmlns="http://www.w3.org/2000/svg"
 width="160.000000pt" height="160.000000pt" viewBox="0 0 160.000000 160.000000"
 preserveAspectRatio="xMidYMid meet">
<metadata>
Created by potrace 1.11, written by Peter Selinger 2001-2013
</metadata>
<g transform="translate(0.000000,160.000000) scale(0.100000,-0.100000)"
fill="#000000" stroke="none">
<path d="M338 1089 c-10 -5 -18 -17 -18 -25 0 -14 52 -143 103 -254 11 -25 46
-106 78 -180 l59 -135 36 0 c35 0 36 2 65 68 16 38 35 83 43 100 73 159 166
382 166 397 0 23 -26 39 -50 33 -12 -3 -50 -81 -121 -249 -57 -134 -104 -242
-105 -241 -1 1 -46 108 -99 237 -86 208 -114 261 -134 260 -3 0 -14 -5 -23
-11z"/>
<path d="M944 1083 c-37 -37 -4 -65 79 -68 93 -3 93 -3 126 -31 59 -49 49
-143 -20 -176 -22 -11 -62 -16 -132 -16 -57 -1 -103 -5 -106 -11 -5 -8 -7
-252 -2 -284 0 -5 18 -7 39 -5 l37 3 1 104 c1 60 6 106 12 110 6 4 31 6 56 6
l46 -1 68 -109 c65 -105 70 -110 105 -113 33 -3 37 -1 37 21 0 14 -27 68 -61
121 l-60 97 23 19 c13 11 26 19 29 20 3 0 14 17 26 38 25 47 29 118 8 168 -35
83 -91 115 -212 118 -62 2 -89 -1 -99 -11z"/>
<path d="M108 849 c-67 -41 -98 -66 -98 -78 0 -13 32 -38 105 -81 100 -59 135
-69 135 -37 0 18 -21 36 -99 82 l-64 38 39 23 c22 13 58 35 82 49 29 17 42 31
40 43 -6 32 -43 22 -140 -39z"/>
<path d="M1363 894 c-7 -20 2 -28 88 -79 l72 -43 -39 -24 c-22 -14 -58 -36
-82 -49 -44 -25 -55 -60 -21 -67 27 -5 219 116 219 138 0 13 -31 37 -100 79
-106 64 -127 71 -137 45z"/>
</g>
</svg>
